PathFileType	4	(X/Y/Z)	C:/Users/beibeiliu/ov580/test_trc/User2\sequence.44_training_dense_right.trc
DataRate	CameraRate	NumFrames	NumMarkers	Units	OrigDataRate	OrigDataStartFrame	OrigNumFrames
120	120	8	19	mm	120	26	75
Frame#	Time	ThumbCMC			ThumbMCP			ThumbIP			ThumbTip			IndexMCP			IndexPIP			IndexTip			MiddleMCP			MiddlePIP			MiddleTip			RingMCP			RingPIP			RingTip			PinkyMCP			PinkyPIP			PinkyTip			BackHand1			BackHand2			BackHand3	
		X0	Y0	Z0	X1	Y1	Z1	X2	Y2	Z2	X3	Y3	Z3	X4	Y4	Z4	X5	Y5	Z5	X6	Y6	Z6	X7	Y7	Z7	X8	Y8	Z8	X9	Y9	Z9	X10	Y10	Z10	X11	Y11	Z11	X12	Y12	Z12	X13	Y13	Z13	X14	Y14	Z14	X15	Y15	Z15	X16	Y16	Z16	X17	Y17	Z17	X18	Y18	Z18	
25	0.208333	50.6058	81.5781	26.1945	20.5877	82.3571	15.3944	-5.04732	82.1824	-2.39156	-18.8507	74.8879	-28.0874	59.6811	101.808	-52.7285	50.1243	106.553	-81.3249	37.4511	104.486	-108.547	70.1473	80.7967	-74.3005	48.5018	71.4136	-99.3111	11.9772	48.5832	-98.7815	68.2816	50.6946	-74.7119	38.6492	36.6126	-84.3595	16.8464	25.5845	-65.7085	73.3605	26.481	-64.8176	44.5872	14.1251	-66.6673	21.3821	7.5944	-45.3336	107.249	53.9845	-19.6216	118.319	49.6293	10.4232	92.7383	79.6238	7.67408	
26	0.216667	52.7465	77.5583	25.196	22.6424	79.3614	14.8148	-7.24272	81.536	-2.93006	-21.2966	74.85	-28.9849	56.3589	101.495	-52.6265	45.7143	101.337	-81.037	23.5139	96.7434	-104.422	69.2874	84.5503	-69.8858	41.8416	69.5372	-95.7238	16.7568	44.9855	-84.487	68.5935	59.7405	-76.9115	40.7268	45.0447	-85.0044	22.5836	26.513	-60.3069	77.0028	31.3763	-68.9794	45.3083	23.584	-71.7846	27.4274	15.1461	-49.641	104.076	58.0364	-21.3073	117.907	49.0726	8.32073	93.6843	80.9722	9.02502	
27	0.225	51.9705	77.1489	29.8383	19.9532	77.7795	17.3441	-9.18475	79.572	-8.34916	-21.7716	72.1168	-29.7449	53.4151	99.302	-55.7721	35.3101	96.7075	-79.2466	9.70567	80.0258	-94.2251	69.8823	88.2421	-70.2198	44.9371	74.1876	-95.5874	17.133	49.7728	-77.4826	79.6072	64.9029	-74.0078	50.8601	56.3311	-90.5137	31.7308	33.2812	-68.4273	86.5661	40.411	-69.3535	59.7005	27.986	-85.4357	33.1516	21.9827	-62.6146	105.696	59.8411	-22.2086	118.767	53.3164	12.6791	91.5517	82.3314	6.20144	
28	0.233333	51.669	75.279	27.5191	19.4804	77.0415	13.4202	-5.28021	75.9235	-6.81032	-19.0653	70.8488	-31.9416	47.7551	102.871	-54.16	27.2893	93.8106	-73.7283	3.47295	65.028	-75.3086	72.7404	95.9243	-67.833	49.1679	88.1563	-93.3847	22.1752	58.0025	-84.1724	86.7204	76.5635	-73.0067	66.2863	70.1479	-96.0556	40.1635	49.3843	-84.2937	96.4314	48.2923	-67.2794	75.9307	43.2602	-93.3035	48.7457	29.8866	-88.7127	106.999	62.7103	-17.3427	120.127	52.1783	12.5846	89.8794	84.4404	9.06695	
29	0.241667	53.3037	72.0796	29.0253	20.3151	72.011	15.7953	-8.5664	73.376	-8.84661	-14.7883	67.5536	-36.7908	46.6523	100.687	-53.7713	25.4363	90.1993	-69.9624	9.44035	60.3673	-65.9923	76.4601	102.145	-65.7294	54.2109	97.4418	-94.5733	23.3057	72.662	-96.2809	94.9358	80.9076	-67.0704	78.2586	83.6323	-97.0258	47.7715	66.1136	-101.796	103.327	52.3647	-63.1997	93.583	50.9322	-96.8606	70.273	41.1292	-109.632	107.927	64.1972	-17.9897	122.09	52.8895	12.2492	89.8822	82.6436	14.4068	
30	0.25	50.006	72.7016	27.4378	17.8544	71.5827	14.0357	-6.75533	68.8986	-8.66741	-15.0702	63.3065	-33.8126	42.8812	103.744	-47.9551	23.7513	87.3406	-68.8127	10.4693	58.5643	-65.1475	75.1801	104.844	-62.2036	55.9028	108.973	-94.1609	29.4096	91.5848	-112.337	96.275	83.5966	-68.4571	84.5861	89.9535	-96.8714	59.1824	76.6054	-119.721	102.992	53.6002	-65.3198	97.4778	53.559	-95.9018	84.8947	47.9019	-117.638	108.046	63.2962	-17.4867	118.404	54.0695	10.7826	90.5	82.1831	13.8895	
31	0.258333	50.8871	72.2686	27.7512	16.601	71.5796	11.1653	-7.32077	69.0462	-10.143	-17.7377	63.0817	-37.4933	46.9316	103.68	-48.1278	20.8823	91.4116	-68.4796	8.29779	60.3921	-69.8808	75.4937	106.32	-63.345	60.417	113.226	-92.7442	34.9176	112.1	-119.505	92.1878	81.5721	-71.9895	84.5089	84.3688	-100.185	66.8416	84.8836	-123.208	101.128	47.5601	-68.0688	92.9971	45.8022	-94.7613	82.1762	43.4025	-119.341	106.624	64.8616	-17.8124	118.93	55.6701	13.9285	92.397	80.6285	11.2577	
32	0.266667	50.2452	73.7826	31.1558	15.5638	73.1128	11.3439	-9.97522	71.5945	-12.1991	-17.4311	63.7943	-38.4781	47.5005	106.103	-46.9691	18.3505	97.6839	-68.3324	3.30719	74.3466	-75.4532	75.2363	103.41	-60.7779	60.1191	115.69	-90.9279	47.372	118.386	-121.264	87.8529	75.9561	-73.1405	77.3599	78.0508	-99.6004	62.0095	74.9108	-127.351	94.099	44.7771	-68.3976	82.3875	34.6937	-92.7009	64.1597	31.5953	-115.554	110.003	63.2341	-18.3349	119.692	51.8	9.39924	92.3654	82.3327	8.25393	
